<?xml version="1.0" standalone="no"?>
<!DOCTYPE svg PUBLIC "-//W3C//DTD SVG 20010904//EN"
 "http://www.w3.org/TR/2001/REC-SVG-20010904/DTD/svg10.dtd">
<svg version="1.0" xmlns="http://www.w3.org/2000/svg"
 width="250.000000pt" height="250.000000pt" viewBox="0 0 250.000000 250.000000"
 preserveAspectRatio="xMidYMid meet">
<metadata>
Created by potrace 1.14, written by Peter Selinger 2001-2017
</metadata>
<g transform="translate(0.000000,250.000000) scale(0.100000,-0.100000)"
fill="#000000" stroke="none">
<path d="M1087 2474 c-1 -1 -20 -4 -42 -7 -103 -13 -412 -149 -556 -246 -126
-84 -206 -184 -349 -433 -39 -68 -79 -152 -90 -188 -28 -98 -51 -241 -46 -280
3 -19 7 -60 11 -90 22 -213 79 -509 110 -575 18 -36 114 -138 240 -255 300
-277 433 -365 572 -378 139 -13 357 -4 553 23 19 3 60 7 90 10 99 10 109 14
261 103 239 138 298 196 458 447 98 154 156 320 175 510 4 33 10 78 14 100 16
93 7 145 -47 265 -66 145 -171 347 -246 470 -193 318 -282 387 -615 477 -171
46 -178 47 -333 48 -86 1 -158 1 -160 -1z m361 -118 c101 -9 96 -8 207 -47 73
-26 110 -47 195 -112 351 -269 413 -354 494 -682 45 -181 49 -215 42 -325 -13
-219 -117 -538 -203 -625 -140 -140 -382 -325 -520 -394 -107 -54 -248 -81
-448 -85 -105 -2 -137 6 -357 94 -334 134 -351 145 -511 352 -153 198 -184
272 -233 566 -2 12 -9 50 -15 83 -6 35 -7 94 -3 138 11 127 17 151 71 296 49
129 117 266 155 311 55 66 243 240 314 290 40 29 243 118 296 130 76 18 357
23 516 10z"/>
<path d="M1030 2267 c-231 -79 -272 -98 -433 -199 -244 -153 -357 -292 -407
-499 -27 -116 -26 -214 5 -389 3 -14 12 -64 20 -111 8 -47 25 -115 36 -150 31
-93 218 -468 243 -485 195 -136 298 -192 434 -236 94 -31 103 -32 272 -32 266
-1 327 10 480 81 180 84 252 139 394 303 52 60 116 158 145 222 32 70 76 205
85 258 36 219 26 319 -54 580 -55 180 -92 245 -198 361 -61 66 -101 94 -302
210 -130 75 -156 87 -270 115 -196 49 -230 47 -450 -29z m375 -9 c81 -11 198
-47 292 -89 220 -99 399 -289 503 -534 76 -180 93 -410 47 -645 -35 -179 -200
-442 -341 -543 -29 -20 -30 -20 -40 -2 -40 69 -152 139 -331 205 -133 50 -161
70 -193 139 -22 46 -27 73 -29 153 -4 160 35 230 177 319 47 29 108 72 137 96
l51 43 22 -35 c15 -25 31 -36 56 -41 39 -7 84 16 84 43 0 21 -38 53 -64 53
-15 0 -17 3 -8 12 20 20 13 28 -20 21 -30 -6 -32 -5 -19 11 18 21 54 41 102
54 29 8 44 6 77 -9 106 -49 193 57 131 158 -34 55 -84 73 -141 49 -14 -6 -16
-2 -11 31 6 52 -25 88 -71 80 -22 -3 -39 1 -55 14 -33 27 -65 24 -97 -10 -15
-16 -33 -27 -40 -24 -7 3 -25 -7 -39 -21 -22 -22 -24 -28 -13 -51 6 -14 14
-25 17 -26 3 0 14 -2 25 -4 30 -6 65 13 78 40 11 24 12 24 30 8 15 -13 23 -15
36 -6 14 8 24 6 46 -14 16 -13 35 -22 42 -19 12 4 12 0 0 -29 -8 -19 -19 -41
-23 -48 -14 -23 -176 -173 -170 -157 30 76 38 123 27 150 -17 41 -53 62 -85
50 -34 -13 -34 -57 0 -94 32 -35 31 -47 -8 -126 -23 -46 -44 -73 -72 -91 -45
-30 -185 -83 -194 -73 -12 11 -38 150 -35 187 6 72 99 221 180 287 63 52 54
76 -18 45 -32 -13 11 93 54 133 26 25 38 45 38 63 0 35 37 64 58 47 11 -10 8
-17 -17 -40 -35 -33 -38 -49 -15 -72 23 -24 62 -19 89 10 19 21 23 34 20 72
-3 38 -10 53 -39 80 -45 41 -87 43 -121 6 -14 -15 -26 -35 -26 -45 -3 -40 -4
-44 -17 -44 -7 0 -23 -10 -36 -22 l-23 -22 -22 20 c-20 19 -28 58 -14 72 3 4
16 -2 29 -14 l22 -20 36 31 c20 18 36 38 36 45 0 27 -41 42 -102 36 -29 -2
-77 -51 -89 -89 -15 -52 6 -109 50 -139 18 -12 37 -20 42 -17 16 9 10 -24 -16
-93 -24 -63 -44 -95 -94 -152 l-21 -24 0 34 c0 27 9 43 40 74 47 46 67 94 50
125 -12 22 -30 27 -31 8 -1 -22 -7 -50 -12 -54 -10 -10 -33 9 -47 39 -19 42
-41 41 -62 -3 -22 -44 -40 -45 -53 -2 -11 38 -22 41 -34 10 -12 -33 4 -69 55
-122 33 -35 44 -54 44 -78 l0 -32 -33 32 c-40 39 -80 110 -101 180 l-15 52 34
14 c50 21 77 70 70 125 -8 68 -59 111 -129 111 -29 0 -66 -20 -66 -35 0 -10
63 -75 72 -75 6 0 16 7 23 17 14 19 35 9 35 -17 0 -17 -35 -60 -50 -60 -3 0
-10 10 -15 23 -6 12 -19 22 -30 22 -11 0 -21 6 -21 13 -1 6 -2 21 -3 32 -1 26
-48 70 -73 70 -58 0 -120 -80 -112 -144 7 -57 65 -83 112 -50 29 20 28 34 -8
63 -33 26 -39 51 -12 51 27 0 42 -14 48 -46 3 -16 20 -45 38 -64 30 -31 73
-127 62 -138 -2 -2 -13 1 -24 7 -25 13 -52 14 -52 2 0 -5 25 -33 56 -63 63
-60 135 -164 154 -222 14 -44 10 -100 -15 -216 -2 -8 -4 -18 -4 -22 -2 -11
-72 12 -147 48 -79 38 -111 74 -139 158 -14 45 -14 51 -1 58 40 22 53 92 22
113 -28 20 -30 20 -65 -16 -36 -36 -38 -56 -11 -134 l20 -59 -27 25 c-100 90
-155 149 -168 182 -15 36 -14 37 5 37 11 0 30 11 42 25 15 18 25 22 38 15 11
-6 24 -4 38 6 20 14 22 13 28 -10 10 -42 86 -57 109 -22 22 33 8 62 -35 80
-21 8 -43 22 -47 31 -15 26 -77 31 -100 8 -14 -14 -29 -18 -54 -15 -48 5 -74
-24 -72 -84 2 -43 1 -44 -20 -29 -67 47 -168 -41 -153 -133 6 -41 27 -66 67
-83 27 -10 38 -9 85 10 63 27 98 20 155 -29 l34 -30 -40 5 c-36 6 -38 5 -22
-8 20 -17 22 -27 3 -27 -7 0 -25 -9 -39 -20 -32 -25 -26 -54 15 -71 40 -16 76
-3 104 38 l21 31 26 -24 c14 -13 72 -54 129 -91 122 -80 162 -121 184 -187 28
-84 17 -240 -24 -321 -26 -54 -54 -74 -161 -116 -157 -61 -239 -107 -305 -171
l-59 -57 -26 22 c-14 12 -37 31 -49 42 -36 30 -142 165 -154 194 -40 103 -128
358 -143 416 -42 169 2 443 100 620 74 133 167 244 267 322 65 50 295 163 385
189 31 9 80 20 108 24 69 11 235 10 320 -2z m-175 -483 c0 -9 -6 -12 -15 -9
-8 4 -12 10 -9 15 8 14 24 10 24 -6z m43 -4 c-4 -3 -11 -10 -15 -15 -5 -5 -8
0 -8 12 0 15 4 20 16 15 9 -3 12 -9 7 -12z m-689 -143 c14 -20 14 -24 -1 -40
-20 -22 -66 -24 -83 -3 -7 8 -10 25 -6 40 5 21 12 25 41 25 24 0 39 -7 49 -22z
m1405 0 c19 -51 -37 -77 -88 -42 l-22 16 22 24 c30 32 76 32 88 2z m-1338 -54
c12 -14 11 -16 -5 -13 -11 2 -21 10 -24 17 -5 17 13 15 29 -4z m1213 7 c3 -5
-1 -12 -10 -15 -27 -11 -37 -7 -24 9 14 17 26 19 34 6z m-595 -934 c13 -25 36
-61 53 -81 23 -29 35 -35 58 -32 59 7 72 48 26 83 -13 10 -15 13 -5 10 10 -3
46 -11 80 -18 81 -15 128 -39 166 -83 42 -47 76 -138 63 -171 -16 -43 -105
-91 -227 -124 -62 -16 -113 -28 -113 -27 0 2 11 23 24 47 35 63 39 93 14 124
-27 35 -59 47 -138 51 -127 6 -188 -22 -208 -96 -11 -44 -1 -67 46 -104 l37
-28 -30 6 c-16 3 -43 8 -58 10 -103 17 -195 58 -246 108 -48 47 -65 91 -49
126 27 55 205 162 293 176 l40 6 -27 -21 c-39 -29 -35 -47 10 -54 86 -15 97
-11 120 43 11 26 23 59 27 74 9 35 15 31 44 -25z"/>
<path d="M930 1923 c-56 -24 -67 -61 -27 -87 29 -20 62 -11 76 20 27 60 5 89
-49 67z"/>
<path d="M1502 1926 c-4 -6 -7 -17 -6 -23 1 -7 2 -19 3 -27 4 -47 71 -61 97
-20 16 23 16 27 1 41 -24 25 -85 43 -95 29z"/>
<path d="M713 1699 c-30 -11 -29 -37 1 -74 l25 -30 25 25 c14 14 28 39 32 55
5 30 4 31 -28 32 -18 0 -43 -3 -55 -8z"/>
<path d="M1709 1703 c-22 -3 -26 -8 -22 -26 6 -23 51 -77 65 -77 12 0 48 62
48 84 0 12 -5 16 -15 13 -8 -4 -17 -2 -20 3 -6 10 -9 10 -56 3z"/>
<path d="M573 1480 c-24 -11 -43 -22 -43 -25 0 -3 7 -19 15 -35 20 -39 55 -40
90 -3 26 29 29 40 19 67 -8 20 -28 19 -81 -4z"/>
<path d="M1834 1485 c-18 -46 38 -105 84 -89 16 6 29 20 33 37 7 26 5 30 -38
48 -54 23 -72 24 -79 4z"/>
</g>
</svg>
